<svg width="12" height="11" viewBox="0 0 12 11" fill="none" xmlns="http://www.w3.org/2000/svg">
<path d="M4.1215 3.66999L0.931497 4.13249L0.874997 4.14399C0.789467 4.1667 0.711495 4.2117 0.649044 4.27439C0.586592 4.33709 0.541899 4.41524 0.519528 4.50085C0.497158 4.58647 0.497911 4.6765 0.521711 4.76173C0.545511 4.84696 0.591506 4.92435 0.654997 4.98599L2.966 7.23549L2.421 10.413L2.4145 10.468C2.40926 10.5565 2.42763 10.6447 2.46772 10.7237C2.50781 10.8028 2.56819 10.8697 2.64267 10.9177C2.71714 10.9658 2.80304 10.9931 2.89157 10.997C2.9801 11.001 3.06808 10.9813 3.1465 10.94L5.9995 9.43999L8.846 10.94L8.896 10.963C8.97853 10.9955 9.06822 11.0055 9.15588 10.9919C9.24353 10.9783 9.32599 10.9416 9.39479 10.8856C9.4636 10.8296 9.51627 10.7564 9.54741 10.6733C9.57856 10.5903 9.58704 10.5004 9.572 10.413L9.0265 7.23549L11.3385 4.98549L11.3775 4.94299C11.4332 4.87438 11.4697 4.79222 11.4834 4.70489C11.497 4.61756 11.4872 4.52818 11.455 4.44586C11.4229 4.36353 11.3695 4.29121 11.3002 4.23625C11.231 4.18129 11.1485 4.14566 11.061 4.13299L7.871 3.66999L6.445 0.779992C6.40374 0.696259 6.33986 0.625749 6.26059 0.576444C6.18133 0.527139 6.08985 0.501007 5.9965 0.501007C5.90315 0.501007 5.81167 0.527139 5.7324 0.576444C5.65314 0.625749 5.58926 0.696259 5.548 0.779992L4.1215 3.66999Z" fill="#F97316"/>
</svg>
